<svg width="486" height="348" viewBox="0 0 486 348" fill="none" xmlns="http://www.w3.org/2000/svg">
<g filter="url(#filter0_d_2_7)">
<path d="M115.807 49.1C116.474 48.5667 117.24 47.7667 118.107 46.7H120.707C121.507 47.9 122.274 48.7 123.007 49.1C124.207 47.6333 125.574 46.7333 127.107 46.4C128.707 46 131.14 45.8 134.407 45.8L139.407 51.8V59.1C136.874 59.1 135.207 59.5667 134.407 60.5C133.607 61.4333 133.207 62.8667 133.207 64.8V66.4C133.674 66.3333 134.074 66.1 134.407 65.7L137.107 67.5L142.107 73.5C141.64 76.6333 140.474 79 138.607 80.6C136.74 82.2 134.34 83 131.407 83C128.474 83 125.774 81.7 123.307 79.1C121.707 80.3 120.44 81.1667 119.507 81.7C118.64 82.2333 117.04 82.7667 114.707 83.3C112.374 83.9 108.974 84.2 104.507 84.2C100.04 84.2 95.4737 83.4333 90.807 81.9C86.207 80.4333 82.307 77.8333 79.107 74.1C75.907 70.3667 74.307 65.7333 74.307 60.2V59.1H73.107L68.107 53.1V45.8C71.0404 45.8 73.107 45.9 74.307 46.1V23.9C74.307 16.1 78.3737 10.8 86.507 7.99999C90.6404 6.53333 95.1737 5.8 100.107 5.8C105.04 5.8 109.34 6.26667 113.007 7.2C116.674 8.06666 120.04 9.43333 123.107 11.3C126.24 13.1 128.707 15.6 130.507 18.8C132.307 22 133.207 25.7 133.207 29.9V40H113.807L108.807 34V26.8L108.707 25.2C108.107 25 107.24 24.9 106.107 24.9C101.174 24.9 98.707 27.5333 98.707 32.8V46.2L103.407 51.8V59.1C102.274 59.1667 101.34 59.2667 100.607 59.4C99.9404 59.4667 99.2404 59.8 98.507 60.4C97.7737 61 97.407 61.8667 97.407 63L97.507 64.5C98.5737 64.9 100.04 65.1 101.907 65.1C103.84 65.1 105.54 64.5667 107.007 63.5C108.54 62.4333 109.507 60.9667 109.907 59.1H109.207L104.207 53.1V45.8C106.474 45.8 108.14 45.8333 109.207 45.9C112.14 46.1 114.34 47.1667 115.807 49.1ZM79.507 49.1C80.307 48.6333 81.0737 47.8333 81.807 46.7H84.507C85.3737 47.9 86.1404 48.7 86.807 49.1C88.007 47.7 89.3737 46.8 90.907 46.4V26.7C90.907 23.2333 91.807 20.5667 93.607 18.7C95.407 16.8333 97.9404 15.9 101.207 15.9C104.474 15.9 107.04 16.8333 108.907 18.7C110.774 20.5 111.707 23.1667 111.707 26.7V31.2H125.407V24.1C125.407 20.4333 124.14 17.4 121.607 15C119.14 12.6 116.174 10.9667 112.707 10.1C109.24 9.16666 105.674 8.7 102.007 8.7C98.3404 8.7 95.1404 8.96666 92.407 9.5C89.7404 10.0333 87.207 10.8667 84.807 12C82.4737 13.1333 80.607 14.7333 79.207 16.8C77.807 18.8667 77.107 21.3 77.107 24.1V47C78.0404 47.5333 78.8404 48.2333 79.507 49.1ZM109.807 65C107.674 67 104.84 68 101.307 68C97.7737 68 94.9404 67 92.807 65C90.7404 63 89.707 60.1667 89.707 56.5C89.707 55.2333 90.1737 53.9667 91.107 52.7C92.0404 51.4333 93.607 50.8 95.807 50.8V48.4C94.5404 48.4 93.5737 48.4667 92.907 48.6C92.307 48.6667 91.507 49.0667 90.507 49.8C89.5737 50.4667 88.6737 51.5 87.807 52.9C86.1404 52.5667 84.5737 51.4333 83.107 49.5C81.907 51.2333 80.4404 52.3667 78.707 52.9C77.8404 51.5 76.907 50.4667 75.907 49.8C74.907 49.0667 74.0737 48.6667 73.407 48.6C72.807 48.4667 71.907 48.4 70.707 48.4V50.8C74.9737 50.8 77.107 53.9 77.107 60.1C77.107 63.7 78.3737 66.6667 80.907 69C85.3737 73.2 92.1737 75.3 101.307 75.3C104.507 75.3 107.24 75 109.507 74.4C111.84 73.7333 113.44 73.1 114.307 72.5C115.24 71.9 116.44 70.9667 117.907 69.7H118.707C120.174 71.3 121.474 72.4667 122.607 73.2C123.807 73.9333 125.174 74.3 126.707 74.3C129.974 74.3 132.407 72.5667 134.007 69.1C133.607 69.2333 133.04 69.3 132.307 69.3C130.307 69.3 128.774 68.7667 127.707 67.7C126.707 66.6333 126.074 65.4667 125.807 64.2C125.607 62.9333 125.507 61.2333 125.507 59.1C125.507 53.5667 127.64 50.8 131.907 50.8V48.4C130.707 48.4 129.774 48.4667 129.107 48.6C128.44 48.6667 127.607 49.0667 126.607 49.8C125.607 50.4667 124.674 51.5 123.807 52.9C122.34 52.5667 120.874 51.4333 119.407 49.5C118.207 51.2333 116.707 52.3667 114.907 52.9C114.04 51.5 113.107 50.4667 112.107 49.8C111.107 49.0667 110.274 48.6667 109.607 48.6C108.94 48.4667 108.007 48.4 106.807 48.4V50.8C109.007 50.8 110.574 51.4667 111.507 52.8C112.507 54.0667 113.007 55.3 113.007 56.5C113.007 60.1667 111.94 63 109.807 65ZM219.077 27.1H213.077V45.8H213.777L218.777 51.8V59.1C216.243 59.1 214.61 59.5667 213.877 60.5C213.143 61.4333 212.777 62.9 212.777 64.9V66.2C212.777 69.6667 211.91 72.6333 210.177 75.1C208.51 77.5667 206.243 79.4333 203.377 80.7C197.977 83.0333 191.843 84.2 184.977 84.2C175.377 84.2 167.51 81.9 161.377 77.3C155.243 72.7667 152.177 67.0667 152.177 60.2V59.1H151.177L146.177 53.1V45.8C148.91 45.8 150.843 45.9 151.977 46.1V27.1H151.177L146.177 21.1V7H176.577L181.577 13V27.1H175.577V45.8H176.477L181.477 51.8V59.1C180.343 59.1667 179.443 59.2667 178.777 59.4C178.11 59.4667 177.377 59.8 176.577 60.4C175.843 61 175.477 61.8667 175.477 63C175.477 64.4 176.81 65.1 179.477 65.1C182.143 65.1 184.277 64.5667 185.877 63.5C187.543 62.3667 188.643 60.9 189.177 59.1H188.477L183.477 53.1V45.8C186.343 45.8 188.343 45.9 189.477 46.1V27.1H188.677L183.677 21.1V7H214.077L219.077 13V27.1ZM168.377 73.9C171.91 74.7667 175.777 75.2 179.977 75.2C184.177 75.2 188.043 74.7667 191.577 73.9C195.11 73.0333 198.177 71.4333 200.777 69.1C203.443 66.7 204.777 63.7 204.777 60.1V59.1C204.777 53.5667 206.943 50.8 211.277 50.8V48.4C210.077 48.4 209.143 48.4667 208.477 48.6C207.877 48.6667 207.043 49.0667 205.977 49.8C204.977 50.4667 204.043 51.5 203.177 52.9C201.71 52.5667 200.243 51.4333 198.777 49.5C197.577 51.2333 196.043 52.3667 194.177 52.9C193.377 51.5 192.477 50.4667 191.477 49.8C190.477 49.0667 189.643 48.6667 188.977 48.6C188.31 48.4667 187.377 48.4 186.177 48.4V50.8C188.377 50.8 189.943 51.4333 190.877 52.7C191.81 53.9667 192.277 55.2333 192.277 56.5C192.277 60.1 191.11 62.9333 188.777 65C186.443 67 183.51 68 179.977 68C176.443 68 173.51 67 171.177 65C168.843 62.9333 167.677 60.1 167.677 56.5C167.677 55.2333 168.143 53.9667 169.077 52.7C170.01 51.4333 171.577 50.8 173.777 50.8V48.4C172.577 48.4 171.643 48.4667 170.977 48.6C170.31 48.6667 169.477 49.0667 168.477 49.8C167.477 50.4667 166.577 51.5 165.777 52.9C164.043 52.5667 162.51 51.4333 161.177 49.5C159.843 51.2333 158.377 52.3667 156.777 52.9C155.91 51.5 154.943 50.4667 153.877 49.8C152.877 49.0667 152.043 48.6667 151.377 48.6C150.777 48.4667 149.877 48.4 148.677 48.4V50.8C153.01 50.8 155.177 53.5667 155.177 59.1V60.1C155.177 63.7 156.477 66.7 159.077 69.1C161.743 71.4333 164.843 73.0333 168.377 73.9ZM195.077 49.1C195.743 48.7 196.543 47.9 197.477 46.7H199.977C200.843 47.9 201.677 48.7 202.477 49.1C203.21 48.2333 204.077 47.5333 205.077 47V18.3H211.277V9.79999H186.477V18.3H192.477V47C193.41 47.5333 194.277 48.2333 195.077 49.1ZM157.477 49.1C158.277 48.6333 159.11 47.8333 159.977 46.7H162.477C163.343 47.9 164.143 48.7 164.877 49.1C165.61 48.1667 166.51 47.4333 167.577 46.9V18.3H173.777V9.79999H148.977V18.3H154.977V47C155.843 47.4667 156.677 48.1667 157.477 49.1ZM283.218 75.7C283.218 78.0333 283.818 79.5667 285.018 80.3L283.218 83C281.485 83 279.651 82.5667 277.718 81.7C275.851 80.8333 274.385 79.9 273.318 78.9C272.185 79.9 270.251 80.8333 267.518 81.7C264.851 82.5667 262.318 83 259.918 83C255.051 83 251.085 81.7 248.018 79.1C245.285 81.7 242.151 83 238.618 83C235.151 83 231.918 81.3 228.918 77.9C225.985 74.5667 224.285 71.1 223.818 67.5L226.618 65.7C226.951 66.2333 227.618 66.5 228.618 66.5C231.285 66.5 232.618 64.0333 232.618 59.1H231.618L226.618 53.1V45.8C229.418 45.8 231.385 45.9 232.518 46.1V27.1H229.718L224.718 21.1V7H278.418L283.418 13V37.4H271.818L266.818 31.4V27.1H256.118V32.9H263.218L268.218 38.9V50.5H260.718L261.818 51.8V59.1C260.751 59.1667 259.885 59.2667 259.218 59.4C258.551 59.4667 257.851 59.8 257.118 60.4C256.385 61 256.018 61.8667 256.018 63V63.4C256.951 63.7333 258.285 63.9 260.018 63.9C261.751 63.9 263.385 63.3667 264.918 62.3C266.451 61.2333 267.218 59.7333 267.218 57.8C267.218 57.4667 267.018 56.5 266.618 54.9V51.7H278.218L283.218 57.7V75.7ZM238.018 49.1C238.685 48.7 239.485 47.9 240.418 46.7H243.118C243.985 47.9 244.751 48.7 245.418 49.1C246.151 48.1667 247.051 47.4333 248.118 46.9V41.7H260.418V35.7H248.118V18.3H269.618V28.6H275.618V9.79999H227.518V18.3H235.518V47C236.385 47.4667 237.218 48.1667 238.018 49.1ZM269.918 58.2C269.918 60.8667 268.885 62.9667 266.818 64.5C264.818 66.0333 262.351 66.8 259.418 66.8C256.485 66.8 253.851 65.9667 251.518 64.3C249.251 62.5667 248.118 59.9667 248.118 56.5C248.118 55.3 248.585 54.0667 249.518 52.8C250.518 51.4667 252.085 50.8 254.218 50.8V48.4C253.018 48.4 252.085 48.4667 251.418 48.6C250.818 48.6667 250.018 49.0667 249.018 49.8C248.018 50.4667 247.118 51.5 246.318 52.9C244.718 52.5667 243.185 51.4333 241.718 49.5C240.518 51.2333 239.018 52.3667 237.218 52.9C236.351 51.5 235.418 50.4667 234.418 49.8C233.418 49.0667 232.585 48.6667 231.918 48.6C231.318 48.4667 230.418 48.4 229.218 48.4V50.8C231.485 50.8 233.118 51.6 234.118 53.2C235.185 54.7333 235.718 56.9 235.718 59.7C235.718 62.5 235.251 64.8 234.318 66.6C233.451 68.4 231.585 69.3 228.718 69.3L227.318 69.1C228.518 72.5 230.618 74.2 233.618 74.2C236.618 74.2 239.551 72.7 242.418 69.7H243.318L243.718 70.1C246.918 72.7667 250.785 74.1 255.318 74.1C259.918 74.1 264.251 72.5333 268.318 69.4C268.918 70 270.151 70.8667 272.018 72C273.885 73.0667 275.351 73.7 276.418 73.9C275.818 73.2333 275.518 71.5 275.518 68.7V54.7H269.418C269.751 55.8333 269.918 57 269.918 58.2ZM347.243 60.9L347.443 65.1C347.443 71.3667 345.276 76.1 340.943 79.3C336.676 82.5667 331.61 84.2 325.743 84.2C323.943 84.2 322.143 83.9667 320.343 83.5C318.543 83.0333 317.176 82.5333 316.243 82C315.31 81.5333 314.176 80.9 312.843 80.1C311.576 79.3667 310.876 78.9667 310.743 78.9L308.343 77.5C306.943 78.9 305.076 80.1667 302.743 81.3C300.476 82.4333 298.443 83 296.643 83L291.643 77L289.843 74.2C291.043 73.5333 291.643 72.0667 291.643 69.8V51.8H303.243L308.243 57.8V60.9L308.643 63.8C310.043 64.6667 312.21 65.1 315.143 65.1C318.143 65.1 319.976 63.7 320.643 60.9C319.576 61.5 318.843 62 318.443 62.4L308.743 50.8L310.543 49.3C307.61 47.5 305.276 46 303.543 44.8C301.876 43.5333 299.876 41.8 297.543 39.6C292.876 35.0667 290.543 29.8667 290.543 24C290.543 18.0667 292.776 13.5667 297.243 10.5C301.776 7.36667 307.01 5.8 312.943 5.8C316.143 5.8 319.01 6.3 321.543 7.3C324.076 8.23333 325.81 9.2 326.743 10.2L328.143 11.6V7H340.543L345.543 13V35.4H333.843L328.843 29.4L327.443 24.8C326.31 24.2 324.976 23.9 323.443 23.9C321.91 23.9 320.61 24.4333 319.543 25.5C318.543 26.5667 318.043 28.0333 318.043 29.9L318.143 30.8C318.343 31 320.176 31.9333 323.643 33.6C327.176 35.2 330.543 37.1333 333.743 39.4C336.943 41.6 338.943 43.8 339.743 46C340.743 45.8667 342.543 45.8 345.143 45.8L350.143 51.8V59.1C348.21 59.1 347.243 59.7 347.243 60.9ZM293.543 23.2C293.543 26.4667 294.376 29.4 296.043 32C297.776 34.5333 299.643 36.4667 301.643 37.8C303.643 39.0667 306.21 40.5667 309.343 42.3C312.476 44.0333 314.676 45.3667 315.943 46.3C317.143 45.9667 318.343 45.8 319.543 45.8C322.143 45.8 324.643 46.8 327.043 48.8L328.843 46.8H331.343C332.21 47.9333 332.976 48.7 333.643 49.1C334.443 48.1 335.443 47.3333 336.643 46.8C335.243 44.3333 332.976 42.1 329.843 40.1C326.71 38.0333 323.71 36.4333 320.843 35.3C318.043 34.1667 315.51 32.6333 313.243 30.7C311.043 28.7 309.943 26.4333 309.943 23.9C309.943 22.2333 310.31 20.7 311.043 19.3C312.576 16.5 315.11 15.1 318.643 15.1C324.51 15.1 328.676 18.9333 331.143 26.6H338.243V9.79999H330.643V16.8H330.043C325.71 11.4 320.043 8.7 313.043 8.7C307.776 8.7 303.21 10.0333 299.343 12.7C295.476 15.3 293.543 18.8 293.543 23.2ZM339.543 59.3L339.343 54.9C339.343 52.1 340.443 50.7 342.643 50.7V48.2C341.376 48.2 340.41 48.2667 339.743 48.4C339.143 48.4667 338.343 48.8667 337.343 49.6C336.343 50.3333 335.41 51.4333 334.543 52.9C332.943 52.6333 331.476 51.5 330.143 49.5C328.876 51.0333 327.543 52 326.143 52.4C324.276 49.6 321.743 48.2 318.543 48.2C316.476 48.2 314.443 49.1333 312.443 51L313.943 52.9C315.21 51.9 316.51 51.4 317.843 51.4C319.176 51.4 320.343 51.8 321.343 52.6C322.41 53.4 323.043 54.3333 323.243 55.4C323.51 56.4667 323.643 57.6667 323.643 59C323.643 60.2667 323.443 61.5 323.043 62.7C322.71 63.9 321.843 65.1 320.443 66.3C319.043 67.4333 317.21 68 314.943 68C311.143 68 307.876 66.8667 305.143 64.6C302.41 62.3333 300.843 59.0333 300.443 54.7H294.543V68.8C294.543 71.5333 294.21 73.2 293.543 73.8C294.81 73.6 296.51 72.8333 298.643 71.5C300.843 70.1667 302.21 69 302.743 68C303.676 68.6 305.01 69.4333 306.743 70.5C312.01 73.7667 316.61 75.4 320.543 75.4C325.876 75.4 330.376 74.0333 334.043 71.3C337.71 68.5 339.543 64.5 339.543 59.3ZM412.868 60.9L413.068 65.1C413.068 71.3667 410.901 76.1 406.568 79.3C402.301 82.5667 397.235 84.2 391.368 84.2C389.568 84.2 387.768 83.9667 385.968 83.5C384.168 83.0333 382.801 82.5333 381.868 82C380.935 81.5333 379.801 80.9 378.468 80.1C377.201 79.3667 376.501 78.9667 376.368 78.9L373.968 77.5C372.568 78.9 370.701 80.1667 368.368 81.3C366.101 82.4333 364.068 83 362.268 83L357.268 77L355.468 74.2C356.668 73.5333 357.268 72.0667 357.268 69.8V51.8H368.868L373.868 57.8V60.9L374.268 63.8C375.668 64.6667 377.835 65.1 380.768 65.1C383.768 65.1 385.601 63.7 386.268 60.9C385.201 61.5 384.468 62 384.068 62.4L374.368 50.8L376.168 49.3C373.235 47.5 370.901 46 369.168 44.8C367.501 43.5333 365.501 41.8 363.168 39.6C358.501 35.0667 356.168 29.8667 356.168 24C356.168 18.0667 358.401 13.5667 362.868 10.5C367.401 7.36667 372.635 5.8 378.568 5.8C381.768 5.8 384.635 6.3 387.168 7.3C389.701 8.23333 391.435 9.2 392.368 10.2L393.768 11.6V7H406.168L411.168 13V35.4H399.468L394.468 29.4L393.068 24.8C391.935 24.2 390.601 23.9 389.068 23.9C387.535 23.9 386.235 24.4333 385.168 25.5C384.168 26.5667 383.668 28.0333 383.668 29.9L383.768 30.8C383.968 31 385.801 31.9333 389.268 33.6C392.801 35.2 396.168 37.1333 399.368 39.4C402.568 41.6 404.568 43.8 405.368 46C406.368 45.8667 408.168 45.8 410.768 45.8L415.768 51.8V59.1C413.835 59.1 412.868 59.7 412.868 60.9ZM359.168 23.2C359.168 26.4667 360.001 29.4 361.668 32C363.401 34.5333 365.268 36.4667 367.268 37.8C369.268 39.0667 371.835 40.5667 374.968 42.3C378.101 44.0333 380.301 45.3667 381.568 46.3C382.768 45.9667 383.968 45.8 385.168 45.8C387.768 45.8 390.268 46.8 392.668 48.8L394.468 46.8H396.968C397.835 47.9333 398.601 48.7 399.268 49.1C400.068 48.1 401.068 47.3333 402.268 46.8C400.868 44.3333 398.601 42.1 395.468 40.1C392.335 38.0333 389.335 36.4333 386.468 35.3C383.668 34.1667 381.135 32.6333 378.868 30.7C376.668 28.7 375.568 26.4333 375.568 23.9C375.568 22.2333 375.935 20.7 376.668 19.3C378.201 16.5 380.735 15.1 384.268 15.1C390.135 15.1 394.301 18.9333 396.768 26.6H403.868V9.79999H396.268V16.8H395.668C391.335 11.4 385.668 8.7 378.668 8.7C373.401 8.7 368.835 10.0333 364.968 12.7C361.101 15.3 359.168 18.8 359.168 23.2ZM405.168 59.3L404.968 54.9C404.968 52.1 406.068 50.7 408.268 50.7V48.2C407.001 48.2 406.035 48.2667 405.368 48.4C404.768 48.4667 403.968 48.8667 402.968 49.6C401.968 50.3333 401.035 51.4333 400.168 52.9C398.568 52.6333 397.101 51.5 395.768 49.5C394.501 51.0333 393.168 52 391.768 52.4C389.901 49.6 387.368 48.2 384.168 48.2C382.101 48.2 380.068 49.1333 378.068 51L379.568 52.9C380.835 51.9 382.135 51.4 383.468 51.4C384.801 51.4 385.968 51.8 386.968 52.6C388.035 53.4 388.668 54.3333 388.868 55.4C389.135 56.4667 389.268 57.6667 389.268 59C389.268 60.2667 389.068 61.5 388.668 62.7C388.335 63.9 387.468 65.1 386.068 66.3C384.668 67.4333 382.835 68 380.568 68C376.768 68 373.501 66.8667 370.768 64.6C368.035 62.3333 366.468 59.0333 366.068 54.7H360.168V68.8C360.168 71.5333 359.835 73.2 359.168 73.8C360.435 73.6 362.135 72.8333 364.268 71.5C366.468 70.1667 367.835 69 368.368 68C369.301 68.6 370.635 69.4333 372.368 70.5C377.635 73.7667 382.235 75.4 386.168 75.4C391.501 75.4 396.001 74.0333 399.668 71.3C403.335 68.5 405.168 64.5 405.168 59.3ZM179.39 151.1V169.8H180.19L185.19 175.8V183.1C182.59 183.1 180.89 183.567 180.09 184.5C179.357 185.433 178.99 186.933 178.99 189V190.5C179.457 190.5 179.857 190.233 180.19 189.7L182.99 191.5L187.99 197.5C187.59 200.633 186.457 203 184.59 204.6C182.723 206.2 180.457 207 177.79 207C175.19 207 172.623 206.1 170.09 204.3C167.557 206.1 164.923 207 162.19 207C159.523 207 156.457 205.4 152.99 202.2C149.523 199 147.59 195.433 147.19 191.5L149.99 189.7C150.257 190.3 150.89 190.6 151.89 190.6C154.757 190.6 156.19 188.1 156.19 183.1H154.99L149.99 177.1V169.8C152.723 169.8 154.657 169.9 155.79 170.1V151.1H152.89V161.4H141.29L136.29 155.4V131H193.89L198.89 137V161.4H187.89L182.89 155.4V151.1H179.39ZM161.39 173.1C162.057 172.7 162.857 171.9 163.79 170.7H166.39C167.257 171.9 168.057 172.7 168.79 173.1C169.457 172.167 170.323 171.433 171.39 170.9V142.3H185.39V152.6H191.09V133.8H139.09V152.6H145.09V142.3H158.79V170.9C159.723 171.367 160.59 172.1 161.39 173.1ZM165.39 194.9C167.79 196.967 170.423 198 173.29 198C176.223 198 178.357 196.333 179.69 193C179.223 193.267 178.69 193.4 178.09 193.4C173.423 193.4 171.09 189.967 171.09 183.1C171.09 177.5 173.29 174.7 177.69 174.7V172.2C176.423 172.2 175.457 172.267 174.79 172.4C174.123 172.467 173.29 172.867 172.29 173.6C171.29 174.333 170.39 175.433 169.59 176.9C167.99 176.567 166.49 175.4 165.09 173.4C163.69 175.2 162.19 176.367 160.59 176.9C159.723 175.433 158.79 174.333 157.79 173.6C156.79 172.867 155.957 172.467 155.29 172.4C154.623 172.267 153.69 172.2 152.49 172.2V174.7C156.89 174.7 159.09 177.5 159.09 183.1C159.09 188.167 158.023 191.333 155.89 192.6C154.89 193.133 153.623 193.4 152.09 193.4L150.49 193C151.823 196.333 153.923 198 156.79 198C159.723 198 162.39 196.967 164.79 194.9H165.39ZM205.138 169.8C207.872 169.8 209.805 169.9 210.938 170.1V151.1H210.138L205.138 145.1V131H235.538L240.538 137V151.1H234.538V157.1H250.338V151.1H249.538L244.538 145.1V131H274.938L279.938 137V151.1H273.938V169.8H274.738L279.738 175.8V183.1C277.138 183.1 275.438 183.567 274.638 184.5C273.905 185.433 273.538 186.933 273.538 189V190.5C274.005 190.5 274.405 190.233 274.738 189.7L277.538 191.5L282.538 197.5C282.138 200.633 281.005 203 279.138 204.6C277.272 206.2 275.005 207 272.338 207C269.738 207 267.172 206.1 264.638 204.3C262.105 206.1 259.472 207 256.738 207C254.072 207 251.005 205.4 247.538 202.2C244.072 199 242.138 195.433 241.738 191.5L244.538 189.7C244.805 190.3 245.438 190.6 246.438 190.6C249.305 190.6 250.738 188.1 250.738 183.1H249.538L244.538 177.1V174.5H239.238L240.338 175.8V183.1C237.738 183.1 236.038 183.567 235.238 184.5C234.505 185.433 234.138 186.933 234.138 189V190.5C234.605 190.5 235.005 190.233 235.338 189.7L238.138 191.5L243.138 197.5C242.738 200.633 241.605 203 239.738 204.6C237.872 206.2 235.605 207 232.938 207C230.338 207 227.772 206.1 225.238 204.3C222.705 206.1 220.072 207 217.338 207C214.672 207 211.605 205.4 208.138 202.2C204.672 199 202.738 195.433 202.338 191.5L205.138 189.7C205.405 190.3 206.038 190.6 207.038 190.6C209.905 190.6 211.338 188.1 211.338 183.1H210.138L205.138 177.1V169.8ZM216.538 173.1C217.205 172.7 218.005 171.9 218.938 170.7H221.538C222.405 171.9 223.205 172.7 223.938 173.1C224.605 172.167 225.472 171.433 226.538 170.9V165.8H253.338V170.9C254.272 171.367 255.138 172.1 255.938 173.1C256.605 172.7 257.405 171.9 258.338 170.7H260.938C261.805 171.9 262.605 172.7 263.338 173.1C264.005 172.167 264.872 171.433 265.938 170.9V142.3H272.138V133.8H247.338V142.3H253.338V159.8H226.538V142.3H232.738V133.8H207.938V142.3H213.938V170.9C214.872 171.367 215.738 172.1 216.538 173.1ZM259.938 194.9C262.338 196.967 264.972 198 267.838 198C270.772 198 272.905 196.333 274.238 193C273.772 193.267 273.238 193.4 272.638 193.4C267.972 193.4 265.638 189.967 265.638 183.1C265.638 177.5 267.838 174.7 272.238 174.7V172.2C270.972 172.2 270.005 172.267 269.338 172.4C268.672 172.467 267.838 172.867 266.838 173.6C265.838 174.333 264.938 175.433 264.138 176.9C262.538 176.567 261.038 175.4 259.638 173.4C258.238 175.2 256.738 176.367 255.138 176.9C254.272 175.433 253.338 174.333 252.338 173.6C251.338 172.867 250.505 172.467 249.838 172.4C249.172 172.267 248.238 172.2 247.038 172.2V174.7C251.438 174.7 253.638 177.5 253.638 183.1C253.638 188.167 252.572 191.333 250.438 192.6C249.438 193.133 248.172 193.4 246.638 193.4L245.038 193C246.372 196.333 248.472 198 251.338 198C254.272 198 256.938 196.967 259.338 194.9H259.938ZM220.538 194.9C222.938 196.967 225.572 198 228.438 198C231.372 198 233.505 196.333 234.838 193C234.372 193.267 233.838 193.4 233.238 193.4C228.572 193.4 226.238 189.967 226.238 183.1C226.238 177.5 228.438 174.7 232.838 174.7V172.2C231.572 172.2 230.605 172.267 229.938 172.4C229.272 172.467 228.438 172.867 227.438 173.6C226.438 174.333 225.538 175.433 224.738 176.9C223.138 176.567 221.638 175.4 220.238 173.4C218.838 175.2 217.338 176.367 215.738 176.9C214.872 175.433 213.938 174.333 212.938 173.6C211.938 172.867 211.105 172.467 210.438 172.4C209.772 172.267 208.838 172.2 207.638 172.2V174.7C212.038 174.7 214.238 177.5 214.238 183.1C214.238 188.167 213.172 191.333 211.038 192.6C210.038 193.133 208.772 193.4 207.238 193.4L205.638 193C206.972 196.333 209.072 198 211.938 198C214.872 198 217.538 196.967 219.938 194.9H220.538ZM347.085 199.7C347.085 202.033 347.685 203.567 348.885 204.3L347.085 207C345.352 207 343.518 206.567 341.585 205.7C339.718 204.833 338.252 203.9 337.185 202.9C336.052 203.9 334.118 204.833 331.385 205.7C328.718 206.567 326.185 207 323.785 207C318.918 207 314.952 205.7 311.885 203.1C309.152 205.7 306.018 207 302.485 207C299.018 207 295.785 205.3 292.785 201.9C289.852 198.567 288.152 195.1 287.685 191.5L290.485 189.7C290.818 190.233 291.485 190.5 292.485 190.5C295.152 190.5 296.485 188.033 296.485 183.1H295.485L290.485 177.1V169.8C293.285 169.8 295.252 169.9 296.385 170.1V151.1H293.585L288.585 145.1V131H342.285L347.285 137V161.4H335.685L330.685 155.4V151.1H319.985V156.9H327.085L332.085 162.9V174.5H324.585L325.685 175.8V183.1C324.618 183.167 323.752 183.267 323.085 183.4C322.418 183.467 321.718 183.8 320.985 184.4C320.252 185 319.885 185.867 319.885 187V187.4C320.818 187.733 322.152 187.9 323.885 187.9C325.618 187.9 327.252 187.367 328.785 186.3C330.318 185.233 331.085 183.733 331.085 181.8C331.085 181.467 330.885 180.5 330.485 178.9V175.7H342.085L347.085 181.7V199.7ZM301.885 173.1C302.552 172.7 303.352 171.9 304.285 170.7H306.985C307.852 171.9 308.618 172.7 309.285 173.1C310.018 172.167 310.918 171.433 311.985 170.9V165.7H324.285V159.7H311.985V142.3H333.485V152.6H339.485V133.8H291.385V142.3H299.385V171C300.252 171.467 301.085 172.167 301.885 173.1ZM333.785 182.2C333.785 184.867 332.752 186.967 330.685 188.5C328.685 190.033 326.218 190.8 323.285 190.8C320.352 190.8 317.718 189.967 315.385 188.3C313.118 186.567 311.985 183.967 311.985 180.5C311.985 179.3 312.452 178.067 313.385 176.8C314.385 175.467 315.952 174.8 318.085 174.8V172.4C316.885 172.4 315.952 172.467 315.285 172.6C314.685 172.667 313.885 173.067 312.885 173.8C311.885 174.467 310.985 175.5 310.185 176.9C308.585 176.567 307.052 175.433 305.585 173.5C304.385 175.233 302.885 176.367 301.085 176.9C300.218 175.5 299.285 174.467 298.285 173.8C297.285 173.067 296.452 172.667 295.785 172.6C295.185 172.467 294.285 172.4 293.085 172.4V174.8C295.352 174.8 296.985 175.6 297.985 177.2C299.052 178.733 299.585 180.9 299.585 183.7C299.585 186.5 299.118 188.8 298.185 190.6C297.318 192.4 295.452 193.3 292.585 193.3L291.185 193.1C292.385 196.5 294.485 198.2 297.485 198.2C300.485 198.2 303.418 196.7 306.285 193.7H307.185L307.585 194.1C310.785 196.767 314.652 198.1 319.185 198.1C323.785 198.1 328.118 196.533 332.185 193.4C332.785 194 334.018 194.867 335.885 196C337.752 197.067 339.218 197.7 340.285 197.9C339.685 197.233 339.385 195.5 339.385 192.7V178.7H333.285C333.618 179.833 333.785 181 333.785 182.2ZM71.8063 328C70.9396 328.4 70.3729 329.4 70.1063 331C67.0396 331 63.6396 329.4 59.9062 326.2C58.1063 324.667 56.5729 322.5 55.3063 319.7C54.1063 316.833 53.5063 313.667 53.5063 310.2V307.1H52.3063L48.9063 303V307.1C46.3063 307.1 44.6063 307.567 43.8063 308.5C43.0729 309.433 42.7063 310.933 42.7063 313V314.5C43.1729 314.5 43.5729 314.233 43.9063 313.7L46.7063 315.5L51.7063 321.5C51.3063 324.633 50.1729 327 48.3063 328.6C46.4396 330.2 44.1729 331 41.5063 331C38.9063 331 36.3396 330.1 33.8063 328.3C31.2729 330.1 28.6396 331 25.9063 331C23.2396 331 20.1729 329.4 16.7063 326.2C13.2396 323 11.3063 319.433 10.9063 315.5L13.7063 313.7C13.9729 314.3 14.6063 314.6 15.6063 314.6C18.4729 314.6 19.9063 312.1 19.9063 307.1H18.7063L13.7063 301.1V293.8C16.3729 293.8 18.2396 293.867 19.3063 294V275.1H18.5063L13.5063 269.1V255H36.9063L59.3063 281.7V275.1H58.2063L53.2063 269.1V255H83.6063L88.6063 261V275.1H82.6063V293.8H83.5063L88.5063 299.8V307.1C85.9063 307.1 84.2396 307.567 83.5063 308.5C82.7729 309.433 82.4063 310.933 82.4063 313V314.5C82.8729 314.367 83.2396 314.1 83.5063 313.7L91.3063 321.5C90.9063 324.633 89.7396 327 87.8063 328.6C85.9396 330.2 84.0063 331 82.0063 331C80.0063 331 78.0729 330.7 76.2063 330.1C74.3396 329.567 72.8729 328.867 71.8063 328ZM25.1063 297.1C25.7729 296.7 26.5729 295.9 27.5063 294.7H30.1063C30.9729 295.9 31.7729 296.7 32.5063 297.1C33.2396 296.167 34.1396 295.433 35.2063 294.9V275.8H38.0063L52.6063 294C55.3396 294.333 57.4063 295.367 58.8063 297.1C59.4729 296.7 60.2729 295.9 61.2063 294.7H69.5063C70.3729 295.9 71.2063 296.7 72.0063 297.1C72.8729 296.167 73.7396 295.467 74.6063 295V266.3H80.8063V257.8H56.0063V266.3H62.0063V287.3H58.6063L33.8063 257.8H16.3063V266.3H22.3063V294.8C23.3729 295.333 24.3063 296.1 25.1063 297.1ZM76.1063 322C79.3729 322 81.6396 320.333 82.9063 317C82.5063 317.267 82.0063 317.4 81.4063 317.4C79.4063 317.4 77.8396 316.867 76.7063 315.8C75.6396 314.667 74.9729 313.467 74.7063 312.2C74.5063 310.867 74.4063 309.167 74.4063 307.1C74.4063 301.5 76.5729 298.7 80.9063 298.7V296.2C79.7063 296.2 78.7729 296.267 78.1063 296.4C77.5063 296.467 76.6729 296.867 75.6063 297.6C74.6063 298.333 73.6729 299.433 72.8063 300.9C71.2063 300.567 69.7063 299.4 68.3063 297.4H62.4063C61.0063 299.267 59.5063 300.433 57.9063 300.9C57.0396 299.433 56.1063 298.333 55.1063 297.6C54.1063 296.867 53.2729 296.467 52.6063 296.4C52.0063 296.267 51.1063 296.2 49.9063 296.2V298.7C54.1729 298.7 56.3063 301.5 56.3063 307.1V309.7C56.3063 314.9 58.0063 318.6 61.4063 320.8C62.0729 321.2 62.6729 321.467 63.2063 321.6C63.7396 319.733 64.8396 318.8 66.5063 318.8C67.6396 319.733 69.2063 320.5 71.2063 321.1C73.2063 321.7 74.8396 322 76.1063 322ZM29.1063 318.9C31.5063 320.967 34.1396 322 37.0063 322C39.9396 322 42.0729 320.333 43.4063 317C42.9396 317.267 42.4063 317.4 41.8063 317.4C37.1396 317.4 34.8063 313.967 34.8063 307.1C34.8063 301.5 37.0063 298.7 41.4063 298.7V296.2C40.1396 296.2 39.1729 296.267 38.5063 296.4C37.8396 296.467 37.0063 296.867 36.0063 297.6C35.0063 298.333 34.1063 299.433 33.3063 300.9C31.7063 300.567 30.2063 299.4 28.8063 297.4C27.4063 299.2 25.9063 300.367 24.3063 300.9C23.4396 299.433 22.5063 298.333 21.5063 297.6C20.5063 296.867 19.6729 296.467 19.0063 296.4C18.3396 296.267 17.4063 296.2 16.2063 296.2V298.7C20.6063 298.7 22.8063 301.5 22.8063 307.1C22.8063 312.167 21.7396 315.333 19.6063 316.6C18.6063 317.133 17.3396 317.4 15.8063 317.4L14.2063 317C15.5396 320.333 17.6396 322 20.5063 322C23.4396 322 26.1063 320.967 28.5063 318.9H29.1063ZM42.9063 293.8H43.9063L47.3063 297.9V293.8H48.7063L42.9063 286.5V293.8ZM167.905 275.1H161.905V293.8H162.605L167.605 299.8V307.1C165.071 307.1 163.438 307.567 162.705 308.5C161.971 309.433 161.605 310.9 161.605 312.9V314.2C161.605 317.667 160.738 320.633 159.005 323.1C157.338 325.567 155.071 327.433 152.205 328.7C146.805 331.033 140.671 332.2 133.805 332.2C124.205 332.2 116.338 329.9 110.205 325.3C104.071 320.767 101.005 315.067 101.005 308.2V307.1H100.005L95.0047 301.1V293.8C97.738 293.8 99.6714 293.9 100.805 294.1V275.1H100.005L95.0047 269.1V255H125.405L130.405 261V275.1H124.405V293.8H125.305L130.305 299.8V307.1C129.171 307.167 128.271 307.267 127.605 307.4C126.938 307.467 126.205 307.8 125.405 308.4C124.671 309 124.305 309.867 124.305 311C124.305 312.4 125.638 313.1 128.305 313.1C130.971 313.1 133.105 312.567 134.705 311.5C136.371 310.367 137.471 308.9 138.005 307.1H137.305L132.305 301.1V293.8C135.171 293.8 137.171 293.9 138.305 294.1V275.1H137.505L132.505 269.1V255H162.905L167.905 261V275.1ZM117.205 321.9C120.738 322.767 124.605 323.2 128.805 323.2C133.005 323.2 136.871 322.767 140.405 321.9C143.938 321.033 147.005 319.433 149.605 317.1C152.271 314.7 153.605 311.7 153.605 308.1V307.1C153.605 301.567 155.771 298.8 160.105 298.8V296.4C158.905 296.4 157.971 296.467 157.305 296.6C156.705 296.667 155.871 297.067 154.805 297.8C153.805 298.467 152.871 299.5 152.005 300.9C150.538 300.567 149.071 299.433 147.605 297.5C146.405 299.233 144.871 300.367 143.005 300.9C142.205 299.5 141.305 298.467 140.305 297.8C139.305 297.067 138.471 296.667 137.805 296.6C137.138 296.467 136.205 296.4 135.005 296.4V298.8C137.205 298.8 138.771 299.433 139.705 300.7C140.638 301.967 141.105 303.233 141.105 304.5C141.105 308.1 139.938 310.933 137.605 313C135.271 315 132.338 316 128.805 316C125.271 316 122.338 315 120.005 313C117.671 310.933 116.505 308.1 116.505 304.5C116.505 303.233 116.971 301.967 117.905 300.7C118.838 299.433 120.405 298.8 122.605 298.8V296.4C121.405 296.4 120.471 296.467 119.805 296.6C119.138 296.667 118.305 297.067 117.305 297.8C116.305 298.467 115.405 299.5 114.605 300.9C112.871 300.567 111.338 299.433 110.005 297.5C108.671 299.233 107.205 300.367 105.605 300.9C104.738 299.5 103.771 298.467 102.705 297.8C101.705 297.067 100.871 296.667 100.205 296.6C99.6047 296.467 98.7047 296.4 97.5047 296.4V298.8C101.838 298.8 104.005 301.567 104.005 307.1V308.1C104.005 311.7 105.305 314.7 107.905 317.1C110.571 319.433 113.671 321.033 117.205 321.9ZM143.905 297.1C144.571 296.7 145.371 295.9 146.305 294.7H148.805C149.671 295.9 150.505 296.7 151.305 297.1C152.038 296.233 152.905 295.533 153.905 295V266.3H160.105V257.8H135.305V266.3H141.305V295C142.238 295.533 143.105 296.233 143.905 297.1ZM106.305 297.1C107.105 296.633 107.938 295.833 108.805 294.7H111.305C112.171 295.9 112.971 296.7 113.705 297.1C114.438 296.167 115.338 295.433 116.405 294.9V266.3H122.605V257.8H97.8047V266.3H103.805V295C104.671 295.467 105.505 296.167 106.305 297.1ZM203.946 293.8H204.746L209.746 299.8V307.1C207.146 307.1 205.446 307.567 204.646 308.5C203.913 309.433 203.546 310.933 203.546 313V314.5C204.013 314.5 204.413 314.233 204.746 313.7L207.546 315.5L212.546 321.5C212.146 324.633 211.013 327 209.146 328.6C207.279 330.2 205.013 331 202.346 331C199.746 331 197.179 330.1 194.646 328.3C192.113 330.1 189.479 331 186.746 331C184.079 331 181.013 329.4 177.546 326.2C174.079 323 172.146 319.433 171.746 315.5L174.546 313.7C174.813 314.3 175.446 314.6 176.446 314.6C179.313 314.6 180.746 312.1 180.746 307.1H179.546L174.546 301.1V293.8C177.279 293.8 179.213 293.9 180.346 294.1V275.1H179.546L174.546 269.1V255H198.446L214.546 274.5L230.846 255H252.646L257.646 261V275.1H251.646V293.8H252.446L257.446 299.8V307.1C254.846 307.1 253.146 307.567 252.346 308.5C251.613 309.433 251.246 310.933 251.246 313V314.5C251.713 314.5 252.113 314.233 252.446 313.7L255.246 315.5L260.246 321.5C259.846 324.633 258.713 327 256.846 328.6C254.979 330.2 252.713 331 250.046 331C247.446 331 244.879 330.1 242.346 328.3C239.813 330.1 237.179 331 234.446 331C231.779 331 228.713 329.4 225.246 326.2C221.779 323 219.846 319.433 219.446 315.5L222.246 313.7C222.513 314.3 223.146 314.6 224.146 314.6C227.013 314.6 228.446 312.1 228.446 307.1H227.246L222.246 301.1V299.4L219.646 302.6H217.346L212.346 296.7L203.946 286.1V293.8ZM233.646 297.1C234.313 296.7 235.113 295.9 236.046 294.7H238.646C239.513 295.9 240.313 296.7 241.046 297.1C241.713 296.167 242.579 295.433 243.646 294.9V266.3H249.846V257.8H232.246L214.646 278.5H212.346L194.846 257.8H177.346V266.3H183.346V294.9C184.279 295.367 185.146 296.1 185.946 297.1C186.613 296.7 187.413 295.9 188.346 294.7H190.946C191.813 295.9 192.613 296.7 193.346 297.1C194.079 296.1 195.046 295.333 196.246 294.8V275.8H198.946L213.446 293.9L228.046 275.8H230.746V294.8C231.813 295.267 232.779 296.033 233.646 297.1ZM189.946 318.9C192.346 320.967 194.979 322 197.846 322C200.779 322 202.913 320.333 204.246 317C203.779 317.267 203.246 317.4 202.646 317.4C197.979 317.4 195.646 313.967 195.646 307.1C195.646 301.5 197.846 298.7 202.246 298.7V296.2C200.979 296.2 200.013 296.267 199.346 296.4C198.679 296.467 197.846 296.867 196.846 297.6C195.846 298.333 194.946 299.433 194.146 300.9C192.546 300.567 191.046 299.4 189.646 297.4C188.246 299.2 186.746 300.367 185.146 300.9C184.279 299.433 183.346 298.333 182.346 297.6C181.346 296.867 180.513 296.467 179.846 296.4C179.179 296.267 178.246 296.2 177.046 296.2V298.7C181.446 298.7 183.646 301.5 183.646 307.1C183.646 312.167 182.579 315.333 180.446 316.6C179.446 317.133 178.179 317.4 176.646 317.4L175.046 317C176.379 320.333 178.479 322 181.346 322C184.279 322 186.946 320.967 189.346 318.9H189.946ZM237.646 318.9C240.046 320.967 242.679 322 245.546 322C248.479 322 250.613 320.333 251.946 317C251.479 317.267 250.946 317.4 250.346 317.4C245.679 317.4 243.346 313.967 243.346 307.1C243.346 301.5 245.546 298.7 249.946 298.7V296.2C248.679 296.2 247.713 296.267 247.046 296.4C246.379 296.467 245.546 296.867 244.546 297.6C243.546 298.333 242.646 299.433 241.846 300.9C240.246 300.567 238.746 299.4 237.346 297.4C235.946 299.2 234.446 300.367 232.846 300.9C231.046 297.833 228.646 296.3 225.646 296.3H224.746V298.7C229.146 298.7 231.346 301.5 231.346 307.1C231.346 312.167 230.279 315.333 228.146 316.6C227.146 317.133 225.879 317.4 224.346 317.4L222.746 317C224.079 320.333 226.179 322 229.046 322C231.979 322 234.646 320.967 237.046 318.9H237.646ZM336.852 307.1C334.186 307.1 332.486 307.633 331.752 308.7C331.019 309.767 330.652 311.6 330.652 314.2C330.652 325.4 321.652 331 303.652 331C298.786 331 295.219 330.7 292.952 330.1C290.686 329.5 288.586 328.5 286.652 327.1C284.186 329.7 281.452 331 278.452 331C274.519 331 271.052 329.333 268.052 326C265.119 322.667 263.386 319.167 262.852 315.5L265.552 313.7C265.952 314.233 266.686 314.5 267.752 314.5C268.819 314.5 269.686 314.1 270.352 313.3C271.019 312.433 271.419 311.567 271.552 310.7C271.686 309.767 271.752 308.567 271.752 307.1H270.552L265.552 301.1V293.8C268.486 293.8 270.552 293.9 271.752 294.1V275.1H270.652L265.652 269.1V255H301.852C309.586 255 315.752 257.067 320.352 261.2C325.019 265.267 327.352 271.267 327.352 279.2C327.352 283.667 326.119 287.6 323.652 291C324.452 291.867 325.286 292.867 326.152 294C327.219 293.867 329.119 293.8 331.852 293.8L336.852 299.8V307.1ZM276.952 297.1C277.486 296.767 278.252 295.967 279.252 294.7H281.852C282.719 295.9 283.486 296.7 284.152 297.1C285.086 295.967 286.119 295.167 287.252 294.7V289.5H299.152C303.952 289.5 307.119 291.1 308.652 294.3C310.452 294.7 311.952 295.633 313.152 297.1C313.819 296.567 314.586 295.767 315.452 294.7H318.152C318.886 295.9 319.652 296.7 320.452 297.1C320.919 296.433 321.552 295.833 322.352 295.3C320.952 291.833 318.152 288.8 313.952 286.2C317.686 282.8 319.552 278.5 319.552 273.3C319.552 262.967 313.319 257.8 300.852 257.8H268.452V266.3H274.752V295.2C275.419 295.533 276.152 296.167 276.952 297.1ZM310.252 304.5C310.252 311.367 306.352 314.8 298.552 314.8C290.819 314.8 286.952 311.367 286.952 304.5C286.952 303.3 287.419 302.067 288.352 300.8C289.352 299.467 290.952 298.8 293.152 298.8V296.4C291.952 296.4 291.019 296.467 290.352 296.6C289.686 296.667 288.852 297.067 287.852 297.8C286.852 298.467 285.919 299.5 285.052 300.9C283.452 300.567 281.952 299.433 280.552 297.5C279.219 299.233 277.752 300.367 276.152 300.9C275.286 299.5 274.352 298.467 273.352 297.8C272.352 297.067 271.519 296.667 270.852 296.6C270.186 296.467 269.252 296.4 268.052 296.4V298.8C272.319 298.8 274.452 301.567 274.452 307.1C274.452 309.233 274.319 310.933 274.052 312.2C273.852 313.467 273.219 314.633 272.152 315.7C271.152 316.767 269.652 317.3 267.652 317.3L265.952 317.1C267.552 320.567 269.986 322.3 273.252 322.3C274.786 322.3 276.119 321.933 277.252 321.2C278.452 320.467 279.786 319.3 281.252 317.7H282.052C283.852 319.3 285.852 320.433 288.052 321.1C290.319 321.767 293.852 322.1 298.652 322.1C314.786 322.1 322.852 317.433 322.852 308.1C322.852 301.9 324.986 298.8 329.252 298.8V296.4C328.052 296.4 327.119 296.467 326.452 296.6C325.852 296.667 325.052 297.067 324.052 297.8C323.052 298.467 322.119 299.5 321.252 300.9C319.719 300.567 318.252 299.433 316.852 297.5C315.519 299.233 313.952 300.367 312.152 300.9C311.286 299.5 310.352 298.467 309.352 297.8C308.419 297.067 307.619 296.667 306.952 296.6C306.352 296.467 305.419 296.4 304.152 296.4V298.8C306.352 298.8 307.919 299.433 308.852 300.7C309.786 301.967 310.252 303.233 310.252 304.5ZM294.952 284.3H287.252V266.3H294.952C299.419 266.3 302.419 266.933 303.952 268.2C305.552 269.467 306.352 271.767 306.352 275.1C306.352 281.233 302.552 284.3 294.952 284.3ZM301.552 298.2H299.352L300.752 299.8V307.1C296.819 307.233 294.852 308.533 294.852 311V311.5C295.919 311.767 297.186 311.9 298.652 311.9C303.519 311.9 306.386 310.3 307.252 307.1H306.552L301.552 301.1V298.2ZM295.052 275V281.6C299.119 281.6 301.619 280.8 302.552 279.2C303.219 278.067 303.552 276.733 303.552 275.2C303.486 275.067 302.286 275 299.952 275H295.052ZM398.648 323.7C398.648 326.033 399.248 327.567 400.448 328.3L398.648 331C396.914 331 395.081 330.567 393.148 329.7C391.281 328.833 389.814 327.9 388.748 326.9C387.614 327.9 385.681 328.833 382.948 329.7C380.281 330.567 377.748 331 375.348 331C370.481 331 366.514 329.7 363.448 327.1C360.714 329.7 357.581 331 354.048 331C350.581 331 347.348 329.3 344.348 325.9C341.414 322.567 339.714 319.1 339.248 315.5L342.048 313.7C342.381 314.233 343.048 314.5 344.048 314.5C346.714 314.5 348.048 312.033 348.048 307.1H347.048L342.048 301.1V293.8C344.848 293.8 346.814 293.9 347.948 294.1V275.1H345.148L340.148 269.1V255H393.848L398.848 261V285.4H387.248L382.248 279.4V275.1H371.548V280.9H378.648L383.648 286.9V298.5H376.148L377.248 299.8V307.1C376.181 307.167 375.314 307.267 374.648 307.4C373.981 307.467 373.281 307.8 372.548 308.4C371.814 309 371.448 309.867 371.448 311V311.4C372.381 311.733 373.714 311.9 375.448 311.9C377.181 311.9 378.814 311.367 380.348 310.3C381.881 309.233 382.648 307.733 382.648 305.8C382.648 305.467 382.448 304.5 382.048 302.9V299.7H393.648L398.648 305.7V323.7ZM353.448 297.1C354.114 296.7 354.914 295.9 355.848 294.7H358.548C359.414 295.9 360.181 296.7 360.848 297.1C361.581 296.167 362.481 295.433 363.548 294.9V289.7H375.848V283.7H363.548V266.3H385.048V276.6H391.048V257.8H342.948V266.3H350.948V295C351.814 295.467 352.648 296.167 353.448 297.1ZM385.348 306.2C385.348 308.867 384.314 310.967 382.248 312.5C380.248 314.033 377.781 314.8 374.848 314.8C371.914 314.8 369.281 313.967 366.948 312.3C364.681 310.567 363.548 307.967 363.548 304.5C363.548 303.3 364.014 302.067 364.948 300.8C365.948 299.467 367.514 298.8 369.648 298.8V296.4C368.448 296.4 367.514 296.467 366.848 296.6C366.248 296.667 365.448 297.067 364.448 297.8C363.448 298.467 362.548 299.5 361.748 300.9C360.148 300.567 358.614 299.433 357.148 297.5C355.948 299.233 354.448 300.367 352.648 300.9C351.781 299.5 350.848 298.467 349.848 297.8C348.848 297.067 348.014 296.667 347.348 296.6C346.748 296.467 345.848 296.4 344.648 296.4V298.8C346.914 298.8 348.548 299.6 349.548 301.2C350.614 302.733 351.148 304.9 351.148 307.7C351.148 310.5 350.681 312.8 349.748 314.6C348.881 316.4 347.014 317.3 344.148 317.3L342.748 317.1C343.948 320.5 346.048 322.2 349.048 322.2C352.048 322.2 354.981 320.7 357.848 317.7H358.748L359.148 318.1C362.348 320.767 366.214 322.1 370.748 322.1C375.348 322.1 379.681 320.533 383.748 317.4C384.348 318 385.581 318.867 387.448 320C389.314 321.067 390.781 321.7 391.848 321.9C391.248 321.233 390.948 319.5 390.948 316.7V302.7H384.848C385.181 303.833 385.348 305 385.348 306.2ZM444.573 307.1H443.373C440.773 307.1 439.106 307.567 438.373 308.5C437.706 309.433 437.373 310.933 437.373 313V314.5C437.773 314.3 438.106 314.033 438.373 313.7L446.173 321.5C445.773 324.633 444.639 327 442.773 328.6C440.906 330.2 438.706 331 436.173 331C433.639 331 431.039 330.1 428.373 328.3C425.706 330.1 423.106 331 420.573 331C416.973 331 413.673 329.3 410.673 325.9C407.673 322.567 405.939 319.1 405.473 315.5L408.273 313.7C408.606 314.3 409.339 314.6 410.473 314.6C411.606 314.6 412.473 314.167 413.073 313.3C413.739 312.367 414.106 311.467 414.173 310.6C414.306 309.733 414.373 308.567 414.373 307.1H413.273L408.273 301.1V293.8C411.006 293.8 412.939 293.9 414.073 294.1V275.1H411.273L406.273 269.1V255H442.173C451.306 255 458.473 257.633 463.673 262.9C468.873 268.167 471.473 274.867 471.473 283C471.473 291.133 468.939 297.167 463.873 301.1C466.073 304.5 467.173 308.5 467.173 313.1V314.5C467.639 314.3 468.006 314.033 468.273 313.7L470.973 315.5L475.973 321.5C475.639 324.833 474.406 327.233 472.273 328.7C470.139 330.233 466.806 331 462.273 331C457.739 331 453.639 329.033 449.973 325.1C446.373 321.233 444.573 316.267 444.573 310.2V307.1ZM449.973 297.1C450.773 296.633 451.606 295.833 452.473 294.7C453.139 294.7 453.606 294.733 453.873 294.8C460.273 291.867 463.473 285.767 463.473 276.5C463.473 273.233 462.906 270.433 461.773 268.1C460.706 265.7 459.406 263.867 457.873 262.6C456.406 261.267 454.239 260.133 451.373 259.2C448.573 258.267 445.273 257.8 441.473 257.8H409.073V266.3H417.073V294.9C418.073 295.433 418.939 296.167 419.673 297.1C420.339 296.7 421.139 295.9 422.073 294.7H424.673C425.539 295.9 426.373 296.7 427.173 297.1C428.639 295.167 430.739 294.1 433.473 293.9C434.473 293.833 436.106 293.8 438.373 293.8C440.706 293.8 442.406 293.833 443.473 293.9C446.339 294.1 448.506 295.167 449.973 297.1ZM435.873 296.2C434.673 296.2 433.739 296.267 433.073 296.4C432.473 296.467 431.673 296.867 430.673 297.6C429.673 298.333 428.773 299.433 427.973 300.9C426.306 300.567 424.773 299.4 423.373 297.4C421.973 299.2 420.439 300.367 418.773 300.9C417.973 299.433 417.073 298.333 416.073 297.6C415.073 296.867 414.239 296.467 413.573 296.4C412.973 296.267 412.106 296.2 410.973 296.2V298.7C415.239 298.7 417.373 301.5 417.373 307.1C417.373 309.167 417.239 310.867 416.973 312.2C416.773 313.467 416.139 314.667 415.073 315.8C414.006 316.867 412.473 317.4 410.473 317.4L408.973 317C410.306 320.333 412.406 322 415.273 322C418.139 322 420.739 320.967 423.073 318.9H423.673C426.006 320.967 428.573 322 431.373 322C434.239 322 436.406 320.333 437.873 317C437.539 317.267 436.806 317.4 435.673 317.4C434.539 317.4 433.473 317.133 432.473 316.6C431.539 316 430.873 315.167 430.473 314.1C429.806 312.3 429.473 309.967 429.473 307.1C429.473 301.5 431.606 298.7 435.873 298.7H441.073C445.406 298.7 447.573 301.5 447.573 307.1V309.7C447.573 317.9 451.039 322 457.973 322C461.506 322 463.973 321.4 465.373 320.2C466.706 319.133 467.473 318.067 467.673 317C467.273 317.267 466.773 317.4 466.173 317.4C463.439 317.4 461.639 316.467 460.773 314.6C459.906 312.733 459.473 310.1 459.473 306.7C459.473 301.767 457.506 298.667 453.573 297.4C452.306 299.2 450.839 300.367 449.173 300.9C448.306 299.433 447.373 298.333 446.373 297.6C445.373 296.867 444.539 296.467 443.873 296.4C443.206 296.267 442.273 296.2 441.073 296.2H435.873ZM429.873 266.3H436.173C445.706 266.3 450.473 270 450.473 277.4C450.473 281.333 449.306 284.567 446.973 287.1C444.706 289.633 441.139 290.9 436.273 290.9H429.873V266.3ZM440.873 275H437.673V288C444.339 287.467 447.673 283.933 447.673 277.4L447.573 275.9C446.306 275.3 444.073 275 440.873 275Z" fill="#435334"/>
</g>
<defs>
<filter id="filter0_d_2_7" x="0.90625" y="0.800003" width="485.066" height="346.4" filterUnits="userSpaceOnUse" color-interpolation-filters="sRGB">
<feFlood flood-opacity="0" result="BackgroundImageFix"/>
<feColorMatrix in="SourceAlpha" type="matrix" values="0 0 0 0 0 0 0 0 0 0 0 0 0 0 0 0 0 0 127 0" result="hardAlpha"/>
<feOffset dy="5"/>
<feGaussianBlur stdDeviation="5"/>
<feComposite in2="hardAlpha" operator="out"/>
<feColorMatrix type="matrix" values="0 0 0 0 0 0 0 0 0 0 0 0 0 0 0 0 0 0 0.25 0"/>
<feBlend mode="normal" in2="BackgroundImageFix" result="effect1_dropShadow_2_7"/>
<feBlend mode="normal" in="SourceGraphic" in2="effect1_dropShadow_2_7" result="shape"/>
</filter>
</defs>
</svg>
